<svg xmlns="http://www.w3.org/2000/svg" xmlns:xlink="http://www.w3.org/1999/xlink" width="1000" zoomAndPan="magnify" viewBox="0 0 750 412.499988" height="550" preserveAspectRatio="xMidYMid meet" version="1.0"><defs><clipPath id="c88bde7e7d"><path d="M 0.453125 0 L 749.546875 0 L 749.546875 412 L 0.453125 412 Z M 0.453125 0 " clip-rule="nonzero"/></clipPath><clipPath id="877124252d"><path d="M 530.488281 83 L 690 83 L 690 407.507812 L 530.488281 407.507812 Z M 530.488281 83 " clip-rule="nonzero"/></clipPath><clipPath id="f4590351e6"><path d="M 636 42 L 729.746094 42 L 729.746094 275 L 636 275 Z M 636 42 " clip-rule="nonzero"/></clipPath><clipPath id="a23a3239a8"><path d="M 29.738281 55 L 189 55 L 189 379.449219 L 29.738281 379.449219 Z M 29.738281 55 " clip-rule="nonzero"/></clipPath><clipPath id="76bb8a0dc1"><path d="M 135 14 L 228.996094 14 L 228.996094 247 L 135 247 Z M 135 14 " clip-rule="nonzero"/></clipPath></defs><g clip-path="url(#c88bde7e7d)"><path fill="#ffffff" d="M 0.453125 0 L 749.546875 0 L 749.546875 412 L 0.453125 412 Z M 0.453125 0 " fill-opacity="1" fill-rule="nonzero"/><path fill="#ffffff" d="M 0.453125 0 L 749.546875 0 L 749.546875 412 L 0.453125 412 Z M 0.453125 0 " fill-opacity="1" fill-rule="nonzero"/></g><g clip-path="url(#877124252d)"><path fill="#12255d" d="M 638.5625 407.4375 C 638.1875 407.4375 637.820312 407.234375 637.628906 406.875 C 637.464844 406.566406 620.894531 375.363281 607.945312 337.164062 C 600.335938 314.703125 595.4375 294.25 593.398438 276.363281 C 592.867188 271.699219 592.527344 267.203125 592.386719 262.886719 C 578.53125 259.78125 565.109375 254.550781 554.191406 247.964844 C 548.117188 244.300781 543.019531 240.34375 539.039062 236.210938 C 534.84375 231.847656 532.003906 227.390625 530.601562 222.960938 L 530.546875 222.789062 L 530.550781 222.613281 C 530.554688 222.4375 530.691406 218.300781 532.550781 213.65625 C 535.050781 207.421875 539.488281 203.304688 545.382812 201.75 L 545.460938 201.726562 C 545.488281 201.105469 545.253906 199.195312 542.894531 193.945312 C 542.753906 193.640625 539.421875 186.273438 542.539062 182.132812 C 544.085938 180.074219 546.847656 179.234375 550.757812 179.617188 C 551.066406 179.375 551.375 179.136719 551.675781 178.90625 C 553.882812 177.226562 555.625 175.902344 555.0625 172.15625 C 554.664062 169.507812 554.464844 166.464844 554.683594 163.757812 L 554.414062 163.28125 C 554.007812 162.558594 553.929688 161.699219 554.195312 160.921875 C 554.4375 160.203125 554.953125 159.609375 555.625 159.269531 C 556.019531 158.304688 556.539062 157.523438 557.210938 157.003906 C 557.929688 156.449219 559.144531 155.945312 560.859375 156.691406 C 560.925781 156.71875 560.988281 156.75 561.054688 156.785156 C 565.847656 154.425781 569.0625 152.28125 569.816406 150.886719 C 570.21875 150.136719 570.414062 149.175781 570.519531 148.175781 C 568.105469 145.820312 565.988281 143.324219 565.269531 141.285156 C 564.515625 139.148438 562.308594 131.699219 565.542969 125.386719 C 567.382812 121.796875 570.644531 119.296875 575.230469 117.957031 C 586.863281 114.558594 617.761719 105.53125 623.769531 95.714844 C 625.59375 92.734375 628.054688 90.089844 630.886719 88.066406 C 633.785156 85.996094 637.015625 84.621094 640.230469 84.09375 C 645.542969 83.222656 650.574219 84.621094 654.777344 88.136719 C 660.550781 92.960938 665.027344 97.804688 668.078125 102.527344 C 671.863281 108.386719 673.339844 113.929688 672.472656 119.003906 L 671.898438 122.355469 L 670.46875 119.269531 C 668.957031 116 664.449219 107.011719 661.773438 104.683594 C 655.84375 99.527344 647.554688 94.710938 642.082031 96.664062 C 638.707031 97.871094 636.464844 101.566406 635.425781 107.648438 C 634.371094 113.820312 635.433594 119.03125 638.578125 123.140625 C 644.210938 130.503906 654.929688 132.246094 656.992188 132.515625 C 657.21875 132.542969 657.347656 132.558594 657.355469 132.558594 L 657.140625 134.664062 C 657.105469 134.660156 656.882812 134.640625 656.503906 134.589844 C 654.550781 134.339844 648.242188 133.464844 641.621094 131.742188 C 630.742188 128.90625 624.210938 125.207031 622.214844 120.75 C 621.976562 120.214844 622.214844 119.589844 622.746094 119.351562 C 623.28125 119.113281 623.90625 119.351562 624.144531 119.886719 C 625.839844 123.671875 632.0625 127.0625 642.132812 129.6875 C 642.484375 129.777344 642.835938 129.867188 643.1875 129.957031 C 640.636719 128.398438 638.511719 126.539062 636.902344 124.4375 C 633.378906 119.839844 632.179688 114.070312 633.339844 107.292969 C 634.519531 100.402344 637.21875 96.15625 641.371094 94.671875 C 644.910156 93.40625 649.351562 94.207031 654.574219 97.046875 C 658.371094 99.109375 661.582031 101.714844 663.160156 103.089844 C 665.46875 105.097656 668.5625 110.707031 670.515625 114.550781 C 670.179688 111.140625 668.769531 107.5 666.300781 103.675781 C 663.367188 99.132812 659.03125 94.449219 653.421875 89.761719 C 649.703125 86.652344 645.257812 85.417969 640.574219 86.183594 C 634.753906 87.140625 629.003906 91.214844 625.578125 96.820312 C 622.78125 101.390625 615.453125 105.996094 603.183594 110.902344 C 592.976562 114.980469 581.820312 118.242188 575.824219 119.992188 C 571.820312 121.160156 568.996094 123.304688 567.429688 126.355469 C 564.507812 132.058594 566.78125 139.207031 567.265625 140.582031 C 567.714844 141.863281 568.964844 143.507812 570.640625 145.285156 C 570.679688 143.367188 570.769531 141.871094 571.90625 141.285156 C 572.886719 140.78125 573.933594 141.371094 574.636719 141.855469 C 577.894531 144.109375 579.804688 150.078125 580.652344 153.433594 C 580.800781 154.015625 580.5625 154.632812 580.058594 154.96875 C 579.554688 155.300781 578.890625 155.277344 578.414062 154.910156 C 576.960938 153.804688 574.667969 151.988281 572.382812 149.925781 C 572.230469 150.621094 572.007812 151.285156 571.679688 151.890625 C 570.574219 153.945312 566.8125 156.285156 562.644531 158.371094 C 563.332031 159.382812 564.027344 160.839844 564.777344 162.800781 C 565.789062 165.453125 566.875 169.011719 568 173.382812 C 569.96875 181.007812 571.453125 188.75 571.617188 189.609375 C 571.714844 190.128906 571.425781 190.640625 570.925781 190.824219 C 570.511719 190.976562 570.0625 190.859375 569.769531 190.554688 C 570.003906 191.160156 569.949219 191.835938 569.605469 192.410156 C 569.207031 193.078125 568.480469 193.480469 567.703125 193.460938 C 561.527344 193.324219 550.714844 192.53125 547.664062 188.742188 C 546.910156 187.804688 546.628906 186.695312 546.855469 185.546875 C 547.175781 183.902344 547.835938 182.660156 548.652344 181.648438 C 546.554688 181.703125 545.074219 182.292969 544.230469 183.410156 C 542.269531 186.019531 543.992188 191.269531 544.820312 193.074219 C 548.199219 200.59375 547.832031 202.492188 547.023438 203.355469 C 546.644531 203.761719 546.140625 203.894531 545.703125 203.859375 C 540.539062 205.292969 536.785156 208.832031 534.539062 214.390625 C 533.007812 218.179688 532.722656 221.695312 532.675781 222.503906 C 535.304688 230.546875 543.324219 238.941406 555.289062 246.15625 C 565.878906 252.542969 578.878906 257.636719 592.332031 260.703125 C 592.054688 245.191406 594.355469 232.035156 599.214844 221.453125 C 605.609375 207.53125 613.6875 195.867188 623.234375 186.785156 C 630.886719 179.503906 639.488281 173.855469 648.804688 170 C 664.691406 163.421875 676.972656 164.332031 677.488281 164.375 L 677.96875 164.414062 L 678.257812 164.800781 C 678.546875 165.195312 685.378906 174.578125 688.097656 189.269531 C 689.695312 197.902344 689.519531 206.5625 687.574219 215.011719 C 685.144531 225.554688 679.9375 235.785156 672.101562 245.417969 C 668.121094 250.308594 663.152344 254.410156 657.328125 257.613281 C 651.902344 260.597656 645.679688 262.824219 638.84375 264.234375 C 626.371094 266.808594 611.820312 266.65625 596.765625 263.789062 C 596.03125 263.652344 595.304688 263.507812 594.574219 263.355469 C 595.503906 287.960938 602.59375 314.765625 609.953125 336.480469 C 622.847656 374.519531 639.335938 405.570312 639.5 405.878906 C 639.773438 406.394531 639.578125 407.035156 639.0625 407.308594 C 638.902344 407.394531 638.730469 407.4375 638.5625 407.4375 Z M 594.507812 261.179688 C 595.390625 261.367188 596.273438 261.546875 597.15625 261.714844 C 629.601562 267.886719 656.316406 261.460938 670.457031 244.082031 C 687.6875 222.902344 688.4375 202.84375 686.03125 189.746094 C 683.71875 177.167969 678.144531 168.398438 676.828125 166.460938 C 674.40625 166.367188 663.210938 166.304688 649.503906 172 C 635.269531 177.917969 615.320312 191.457031 601.136719 222.339844 C 596.003906 233.507812 594.183594 246.9375 594.507812 261.179688 Z M 551.410156 181.832031 C 550.253906 182.855469 549.300781 184.058594 548.929688 185.949219 C 548.824219 186.492188 548.945312 186.957031 549.316406 187.414062 C 551.441406 190.058594 560.234375 191.179688 567.753906 191.34375 C 567.769531 191.34375 567.773438 191.34375 567.777344 191.335938 C 567.789062 191.324219 567.792969 191.3125 567.792969 191.308594 C 566.164062 188.445312 561.902344 183.425781 551.617188 181.863281 C 551.546875 181.851562 551.480469 181.84375 551.410156 181.832031 Z M 553.644531 180.070312 C 562.511719 181.832031 566.90625 186.144531 568.972656 189.199219 L 556.734375 167.414062 C 556.785156 168.820312 556.921875 170.316406 557.15625 171.84375 C 557.832031 176.34375 555.757812 178.414062 553.644531 180.070312 Z M 556.851562 163.304688 L 568.207031 183.515625 C 567.601562 180.703125 566.824219 177.296875 565.949219 173.910156 C 564.84375 169.617188 563.78125 166.132812 562.800781 163.554688 C 561.894531 161.183594 561.1875 159.953125 560.710938 159.3125 C 559.566406 159.851562 558.417969 160.367188 557.308594 160.84375 C 557.105469 161.546875 556.953125 162.375 556.851562 163.304688 Z M 572.703125 147.335938 C 574.347656 148.890625 576.199219 150.46875 578.03125 151.929688 C 577.1875 149.210938 575.617188 145.109375 573.429688 143.597656 C 573.195312 143.433594 573.027344 143.339844 572.910156 143.285156 C 572.785156 143.792969 572.765625 144.898438 572.75 145.667969 C 572.742188 146.195312 572.730469 146.757812 572.703125 147.335938 Z M 572.703125 147.335938 " fill-opacity="1" fill-rule="nonzero"/></g><g clip-path="url(#f4590351e6)"><path fill="#12255d" d="M 720.273438 274.339844 C 720.167969 274.339844 720.058594 274.324219 719.953125 274.292969 C 719.394531 274.117188 719.085938 273.519531 719.265625 272.960938 C 721.839844 264.84375 723.585938 257.40625 724.601562 250.230469 C 728.226562 224.585938 728.359375 197.28125 724.988281 171.269531 C 721.339844 143.148438 711.285156 114.195312 695.90625 87.539062 C 693.207031 82.863281 692.546875 77.675781 693.9375 72.117188 C 695.03125 67.753906 697.398438 63.160156 700.964844 58.472656 C 705.414062 52.625 710.550781 48.144531 713.050781 46.117188 C 698.382812 41.203125 681.136719 48.1875 669.039062 55.085938 C 654.574219 63.332031 642.910156 74.011719 640.152344 77.644531 C 638.097656 80.34375 638.171875 83.535156 640.375 87.125 C 642.121094 89.96875 644.585938 91.996094 644.609375 92.015625 C 645.0625 92.382812 645.132812 93.050781 644.765625 93.503906 C 644.394531 93.957031 643.730469 94.027344 643.277344 93.65625 C 643.164062 93.566406 640.539062 91.417969 638.597656 88.277344 C 635.90625 83.914062 635.859375 79.792969 638.46875 76.363281 C 641.40625 72.496094 653.085938 61.746094 667.992188 53.246094 C 676.335938 48.488281 684.304688 45.242188 691.683594 43.597656 C 700.667969 41.59375 708.714844 42 715.597656 44.804688 L 717.34375 45.515625 L 715.824219 46.636719 C 715.75 46.6875 708.457031 52.113281 702.625 59.789062 C 694.976562 69.859375 693.332031 78.839844 697.738281 86.480469 C 705.351562 99.675781 711.6875 113.40625 716.574219 127.296875 C 721.667969 141.761719 725.203125 156.46875 727.089844 171 C 728.761719 183.882812 729.578125 197.234375 729.523438 210.679688 C 729.46875 224.273438 728.519531 237.679688 726.703125 250.527344 C 725.671875 257.824219 723.898438 265.371094 721.285156 273.601562 C 721.136719 274.054688 720.722656 274.339844 720.273438 274.339844 Z M 720.273438 274.339844 " fill-opacity="1" fill-rule="nonzero"/></g><g clip-path="url(#a23a3239a8)"><path fill="#ffffff" d="M 137.816406 379.378906 C 137.4375 379.378906 137.070312 379.175781 136.882812 378.816406 C 136.714844 378.507812 120.148438 347.304688 107.199219 309.105469 C 99.585938 286.648438 94.691406 266.191406 92.648438 248.304688 C 92.117188 243.640625 91.78125 239.144531 91.636719 234.828125 C 77.78125 231.722656 64.359375 226.496094 53.445312 219.910156 C 47.367188 216.246094 42.269531 212.289062 38.292969 208.152344 C 34.09375 203.789062 31.253906 199.332031 29.851562 194.90625 L 29.796875 194.734375 L 29.804688 194.554688 C 29.808594 194.382812 29.941406 190.242188 31.800781 185.601562 C 34.300781 179.363281 38.738281 175.246094 44.632812 173.691406 L 44.710938 173.671875 C 44.742188 173.046875 44.503906 171.140625 42.144531 165.886719 C 42.003906 165.585938 38.675781 158.21875 41.789062 154.074219 C 43.335938 152.019531 46.097656 151.175781 50.007812 151.5625 C 50.316406 151.316406 50.625 151.082031 50.929688 150.851562 C 53.132812 149.171875 54.878906 147.84375 54.3125 144.101562 C 53.914062 141.449219 53.714844 138.40625 53.933594 135.703125 L 53.664062 135.222656 C 53.261719 134.503906 53.179688 133.644531 53.445312 132.863281 C 53.691406 132.144531 54.207031 131.554688 54.875 131.210938 C 55.269531 130.246094 55.789062 129.464844 56.460938 128.945312 C 57.179688 128.394531 58.398438 127.890625 60.113281 128.632812 C 60.175781 128.660156 60.242188 128.691406 60.304688 128.726562 C 65.097656 126.367188 68.3125 124.226562 69.066406 122.828125 C 69.46875 122.082031 69.667969 121.117188 69.769531 120.117188 C 67.359375 117.765625 65.238281 115.265625 64.519531 113.226562 C 63.765625 111.09375 61.5625 103.644531 64.796875 97.332031 C 66.636719 93.738281 69.894531 91.238281 74.480469 89.898438 C 86.113281 86.5 117.011719 77.476562 123.019531 67.660156 C 124.84375 64.679688 127.304688 62.03125 130.136719 60.007812 C 133.035156 57.9375 136.265625 56.566406 139.480469 56.039062 C 144.792969 55.164062 149.824219 56.5625 154.03125 60.078125 C 159.804688 64.902344 164.277344 69.746094 167.328125 74.46875 C 171.113281 80.328125 172.59375 85.871094 171.722656 90.945312 L 171.148438 94.300781 L 169.71875 91.210938 C 168.207031 87.945312 163.699219 78.957031 161.023438 76.625 C 155.09375 71.46875 146.808594 66.65625 141.332031 68.609375 C 137.957031 69.8125 135.71875 73.507812 134.679688 79.59375 C 133.625 85.761719 134.683594 90.972656 137.828125 95.082031 C 143.460938 102.445312 154.179688 104.1875 156.242188 104.457031 C 156.472656 104.488281 156.597656 104.5 156.605469 104.503906 L 156.390625 106.609375 C 156.355469 106.605469 156.132812 106.582031 155.753906 106.53125 C 153.800781 106.285156 147.492188 105.410156 140.875 103.683594 C 129.992188 100.851562 123.460938 97.152344 121.464844 92.691406 C 121.226562 92.160156 121.464844 91.53125 122 91.292969 C 122.53125 91.054688 123.160156 91.292969 123.398438 91.828125 C 125.089844 95.613281 131.3125 99.003906 141.382812 101.628906 C 141.734375 101.722656 142.085938 101.8125 142.4375 101.898438 C 139.890625 100.339844 137.761719 98.480469 136.152344 96.378906 C 132.628906 91.78125 131.433594 86.015625 132.589844 79.238281 C 133.769531 72.34375 136.46875 68.097656 140.621094 66.617188 C 144.160156 65.351562 148.605469 66.148438 153.824219 68.988281 C 157.621094 71.050781 160.835938 73.660156 162.410156 75.03125 C 164.71875 77.039062 167.8125 82.648438 169.769531 86.492188 C 169.429688 83.082031 168.019531 79.441406 165.550781 75.621094 C 162.617188 71.074219 158.28125 66.390625 152.671875 61.703125 C 148.953125 58.59375 144.511719 57.359375 139.824219 58.128906 C 134.003906 59.082031 128.257812 63.160156 124.828125 68.765625 C 122.03125 73.335938 114.707031 77.941406 102.433594 82.84375 C 92.226562 86.921875 81.070312 90.183594 75.078125 91.933594 C 71.070312 93.101562 68.246094 95.246094 66.679688 98.296875 C 63.757812 104 66.03125 111.148438 66.515625 112.523438 C 66.96875 113.804688 68.21875 115.453125 69.894531 117.226562 C 69.929688 115.308594 70.019531 113.8125 71.15625 113.230469 C 72.140625 112.726562 73.183594 113.3125 73.886719 113.796875 C 77.144531 116.054688 79.054688 122.019531 79.90625 125.375 C 80.050781 125.960938 79.8125 126.578125 79.308594 126.910156 C 78.804688 127.242188 78.144531 127.21875 77.664062 126.855469 C 76.210938 125.746094 73.917969 123.929688 71.636719 121.871094 C 71.480469 122.5625 71.257812 123.230469 70.933594 123.835938 C 69.828125 125.886719 66.0625 128.226562 61.898438 130.316406 C 62.585938 131.328125 63.277344 132.78125 64.027344 134.746094 C 65.042969 137.394531 66.125 140.957031 67.253906 145.328125 C 69.21875 152.949219 70.703125 160.695312 70.867188 161.550781 C 70.964844 162.074219 70.675781 162.582031 70.175781 162.765625 C 69.761719 162.917969 69.3125 162.804688 69.023438 162.496094 C 69.253906 163.105469 69.199219 163.777344 68.855469 164.355469 C 68.460938 165.019531 67.730469 165.421875 66.957031 165.40625 C 60.78125 165.269531 49.964844 164.472656 46.917969 160.6875 C 46.160156 159.746094 45.878906 158.640625 46.105469 157.488281 C 46.425781 155.84375 47.089844 154.601562 47.902344 153.59375 C 45.804688 153.644531 44.324219 154.234375 43.484375 155.351562 C 41.519531 157.960938 43.242188 163.214844 44.074219 165.015625 C 47.453125 172.539062 47.082031 174.433594 46.277344 175.296875 C 45.898438 175.703125 45.394531 175.839844 44.953125 175.804688 C 39.789062 177.234375 36.035156 180.777344 33.792969 186.332031 C 32.261719 190.121094 31.976562 193.640625 31.929688 194.445312 C 34.554688 202.488281 42.578125 210.882812 54.539062 218.097656 C 65.128906 224.488281 78.128906 229.578125 91.585938 232.648438 C 91.304688 217.136719 93.605469 203.976562 98.464844 193.398438 C 104.859375 179.476562 112.941406 167.8125 122.488281 158.726562 C 130.140625 151.445312 138.742188 145.796875 148.054688 141.941406 C 163.945312 135.363281 176.226562 136.277344 176.742188 136.320312 L 177.21875 136.359375 L 177.507812 136.746094 C 177.796875 137.136719 184.628906 146.519531 187.347656 161.210938 C 188.949219 169.84375 188.773438 178.503906 186.824219 186.953125 C 184.394531 197.5 179.1875 207.730469 171.351562 217.359375 C 167.371094 222.25 162.402344 226.355469 156.582031 229.554688 C 151.152344 232.539062 144.933594 234.769531 138.097656 236.179688 C 125.621094 238.753906 111.070312 238.597656 96.015625 235.734375 C 95.285156 235.59375 94.554688 235.449219 93.828125 235.300781 C 94.753906 259.90625 101.84375 286.707031 109.203125 308.425781 C 122.097656 346.460938 138.585938 377.511719 138.75 377.820312 C 139.023438 378.335938 138.832031 378.976562 138.3125 379.253906 C 138.152344 379.339844 137.984375 379.378906 137.816406 379.378906 Z M 93.757812 233.125 C 94.640625 233.308594 95.523438 233.488281 96.410156 233.65625 C 128.851562 239.828125 155.570312 233.402344 169.707031 216.027344 C 186.9375 194.847656 187.6875 174.785156 185.28125 161.6875 C 182.972656 149.109375 177.394531 140.339844 176.082031 138.40625 C 173.65625 138.3125 162.460938 138.246094 148.757812 143.941406 C 134.519531 149.859375 114.570312 163.398438 100.386719 194.28125 C 95.257812 205.453125 93.433594 218.882812 93.757812 233.125 Z M 50.664062 153.777344 C 49.503906 154.800781 48.550781 156 48.183594 157.894531 C 48.078125 158.433594 48.199219 158.902344 48.566406 159.359375 C 50.695312 162 59.484375 163.121094 67.003906 163.289062 C 67.019531 163.289062 67.023438 163.285156 67.03125 163.28125 C 67.039062 163.269531 67.042969 163.253906 67.042969 163.25 C 65.414062 160.386719 61.152344 155.367188 50.871094 153.808594 C 50.796875 153.796875 50.730469 153.785156 50.664062 153.777344 Z M 52.894531 152.011719 C 61.761719 153.773438 66.15625 158.085938 68.222656 161.140625 L 55.984375 139.355469 C 56.035156 140.761719 56.175781 142.257812 56.40625 143.789062 C 57.085938 148.285156 55.011719 150.355469 52.894531 152.011719 Z M 56.105469 135.246094 L 67.457031 155.457031 C 66.851562 152.648438 66.074219 149.238281 65.203125 145.851562 C 64.09375 141.558594 63.035156 138.074219 62.050781 135.5 C 61.144531 133.128906 60.441406 131.894531 59.960938 131.253906 C 58.816406 131.792969 57.667969 132.308594 56.5625 132.789062 C 56.359375 133.488281 56.203125 134.320312 56.105469 135.246094 Z M 71.953125 119.28125 C 73.597656 120.832031 75.449219 122.414062 77.28125 123.871094 C 76.441406 121.152344 74.867188 117.050781 72.683594 115.539062 C 72.449219 115.378906 72.277344 115.28125 72.160156 115.230469 C 72.035156 115.734375 72.015625 116.839844 72.003906 117.609375 C 71.992188 118.136719 71.984375 118.703125 71.953125 119.28125 Z M 71.953125 119.28125 " fill-opacity="1" fill-rule="nonzero"/></g><g clip-path="url(#76bb8a0dc1)"><path fill="#ffffff" d="M 219.523438 246.285156 C 219.417969 246.285156 219.308594 246.269531 219.203125 246.234375 C 218.648438 246.058594 218.339844 245.460938 218.515625 244.90625 C 221.09375 236.785156 222.839844 229.351562 223.851562 222.175781 C 227.476562 196.527344 227.613281 169.222656 224.238281 143.214844 C 220.59375 115.09375 210.535156 86.140625 195.15625 59.480469 C 192.460938 54.804688 191.796875 49.617188 193.191406 44.0625 C 194.285156 39.695312 196.648438 35.105469 200.214844 30.414062 C 204.664062 24.566406 209.800781 20.085938 212.300781 18.058594 C 197.636719 13.144531 180.386719 20.128906 168.289062 27.027344 C 153.828125 35.273438 142.164062 45.957031 139.40625 49.585938 C 137.351562 52.289062 137.425781 55.480469 139.625 59.066406 C 141.371094 61.914062 143.835938 63.9375 143.863281 63.957031 C 144.3125 64.328125 144.382812 64.992188 144.015625 65.445312 C 143.648438 65.898438 142.980469 65.96875 142.527344 65.601562 C 142.417969 65.511719 139.789062 63.359375 137.847656 60.21875 C 135.15625 55.855469 135.113281 51.738281 137.722656 48.304688 C 140.660156 44.4375 152.335938 33.6875 167.242188 25.1875 C 175.589844 20.433594 183.558594 17.1875 190.933594 15.542969 C 199.921875 13.539062 207.964844 13.941406 214.847656 16.746094 L 216.59375 17.457031 L 215.078125 18.578125 C 215.003906 18.632812 207.707031 24.054688 201.875 31.730469 C 194.226562 41.804688 192.582031 50.785156 196.992188 58.425781 C 204.601562 71.617188 210.941406 85.351562 215.828125 99.238281 C 220.917969 113.707031 224.457031 128.410156 226.339844 142.941406 C 228.011719 155.824219 228.832031 169.175781 228.777344 182.625 C 228.71875 196.214844 227.769531 209.621094 225.953125 222.46875 C 224.921875 229.765625 223.148438 237.3125 220.535156 245.546875 C 220.390625 245.996094 219.972656 246.285156 219.523438 246.285156 Z M 219.523438 246.285156 " fill-opacity="1" fill-rule="nonzero"/></g></svg>